<?xml version="1.0" encoding="UTF-8" standalone="no"?><!-- Generator: Gravit.io --><svg xmlns="http://www.w3.org/2000/svg" xmlns:xlink="http://www.w3.org/1999/xlink" style="isolation:isolate" viewBox="0 0 1024 1024" width="1024pt" height="1024pt"><defs><clipPath id="_clipPath_leWDtftz2FAvEGphNWw2TRALiEItmbsZ"><rect width="1024" height="1024"/></clipPath></defs><g clip-path="url(#_clipPath_leWDtftz2FAvEGphNWw2TRALiEItmbsZ)"><g style="isolation:isolate"><mask id="_mask_Hbx5q3lIaFJYNpltQlR4XOXWvWEPRFxp" x="-200%" y="-200%" width="400%" height="400%"><rect x="-200%" y="-200%" width="400%" height="400%" style="fill:white;"/><path d=" M 276.667 61.763 L 394.333 268.28 L 159 268.28 L 276.667 61.763 Z " fill-rule="evenodd" fill="black" stroke="none"/></mask><path d=" M 276.667 61.763 L 394.333 268.28 L 159 268.28 L 276.667 61.763 Z " fill-rule="evenodd" fill="rgb(0,137,187)" mask="url(#_mask_Hbx5q3lIaFJYNpltQlR4XOXWvWEPRFxp)" vector-effect="non-scaling-stroke" stroke-width="2" stroke="rgb(0,137,187)" stroke-linejoin="round" stroke-linecap="butt" stroke-miterlimit="1.414"/><path d=" M 276.667 61.763 L 394.333 268.28 L 159 268.28 L 276.667 61.763 Z " fill-rule="evenodd" fill="rgb(0,137,187)"/><mask id="_mask_3bkF82UxdUvK6YuZs38UpGo6DAN4XG8z" x="-200%" y="-200%" width="400%" height="400%"><rect x="-200%" y="-200%" width="400%" height="400%" style="fill:white;"/><path d=" M 512 61.763 L 629.667 268.28 L 394.333 268.28 L 512 61.763 Z " fill-rule="evenodd" fill="black" stroke="none"/></mask><path d=" M 512 61.763 L 629.667 268.28 L 394.333 268.28 L 512 61.763 Z " fill-rule="evenodd" fill="rgb(2,106,145)" mask="url(#_mask_3bkF82UxdUvK6YuZs38UpGo6DAN4XG8z)" vector-effect="non-scaling-stroke" stroke-width="2" stroke="rgb(2,106,145)" stroke-linejoin="round" stroke-linecap="butt" stroke-miterlimit="1.414"/><path d=" M 512 61.763 L 629.667 268.28 L 394.333 268.28 L 512 61.763 Z " fill-rule="evenodd" fill="rgb(2,106,145)"/><mask id="_mask_6pz2xWhG3IHlie9YyLjjRfbqtF9qIwQp" x="-200%" y="-200%" width="400%" height="400%"><rect x="-200%" y="-200%" width="400%" height="400%" style="fill:white;"/><path d=" M 747.333 61.763 L 865 268.28 L 629.667 268.28 L 747.333 61.763 Z " fill-rule="evenodd" fill="black" stroke="none"/></mask><path d=" M 747.333 61.763 L 865 268.28 L 629.667 268.28 L 747.333 61.763 Z " fill-rule="evenodd" fill="rgb(0,92,125)" mask="url(#_mask_6pz2xWhG3IHlie9YyLjjRfbqtF9qIwQp)" vector-effect="non-scaling-stroke" stroke-width="2" stroke="rgb(0,92,125)" stroke-linejoin="round" stroke-linecap="butt" stroke-miterlimit="1.414"/><path d=" M 747.333 61.763 L 865 268.28 L 629.667 268.28 L 747.333 61.763 Z " fill-rule="evenodd" fill="rgb(0,92,125)"/><mask id="_mask_UHaZESZg7rglJVn9bCY8dOI79w8XQfDX" x="-200%" y="-200%" width="400%" height="400%"><rect x="-200%" y="-200%" width="400%" height="400%" style="fill:white;"/><path d=" M 629.667 268.28 L 512 61.763 L 747.333 61.763 L 629.667 268.28 Z " fill-rule="evenodd" fill="black" stroke="none"/></mask><path d=" M 629.667 268.28 L 512 61.763 L 747.333 61.763 L 629.667 268.28 Z " fill-rule="evenodd" fill="rgb(0,100,136)" mask="url(#_mask_UHaZESZg7rglJVn9bCY8dOI79w8XQfDX)" vector-effect="non-scaling-stroke" stroke-width="2" stroke="rgb(0,100,136)" stroke-linejoin="round" stroke-linecap="butt" stroke-miterlimit="1.414"/><path d=" M 629.667 268.28 L 512 61.763 L 747.333 61.763 L 629.667 268.28 Z " fill-rule="evenodd" fill="rgb(0,100,136)"/><mask id="_mask_5lnq1IuVRuiuyNbhIqNGs3fW18uwJDP8" x="-200%" y="-200%" width="400%" height="400%"><rect x="-200%" y="-200%" width="400%" height="400%" style="fill:white;"/><path d=" M 394.333 268.28 L 276.667 61.763 L 512 61.763 L 394.333 268.28 Z " fill-rule="evenodd" fill="black" stroke="none"/></mask><path d=" M 394.333 268.28 L 276.667 61.763 L 512 61.763 L 394.333 268.28 Z " fill-rule="evenodd" fill="rgb(0,119,163)" mask="url(#_mask_5lnq1IuVRuiuyNbhIqNGs3fW18uwJDP8)" vector-effect="non-scaling-stroke" stroke-width="2" stroke="rgb(0,119,163)" stroke-linejoin="round" stroke-linecap="butt" stroke-miterlimit="1.414"/><path d=" M 394.333 268.28 L 276.667 61.763 L 512 61.763 L 394.333 268.28 Z " fill-rule="evenodd" fill="rgb(0,119,163)"/></g><g style="isolation:isolate"><mask id="_mask_50DRvArZAMQ1IXnNFDdOfDzbxslNzIIT" x="-200%" y="-200%" width="400%" height="400%"><rect x="-200%" y="-200%" width="400%" height="400%" style="fill:white;"/><path d=" M 629.667 268.28 L 865 268.28 L 512 962.237 L 512 962.237 L 629.667 268.28 L 629.667 268.28 Z " fill="black" stroke="none"/></mask><path d=" M 629.667 268.28 L 865 268.28 L 512 962.237 L 512 962.237 L 629.667 268.28 L 629.667 268.28 Z " fill="rgb(0,100,136)" mask="url(#_mask_50DRvArZAMQ1IXnNFDdOfDzbxslNzIIT)" vector-effect="non-scaling-stroke" stroke-width="2" stroke="rgb(0,100,136)" stroke-linejoin="round" stroke-linecap="butt" stroke-miterlimit="1.414"/><path d=" M 629.667 268.28 L 865 268.28 L 512 962.237 L 512 962.237 L 629.667 268.28 L 629.667 268.28 Z " fill="rgb(0,100,136)"/><mask id="_mask_RLYONEaBZCJy0HWVWwEFIZConRRUtOK1" x="-200%" y="-200%" width="400%" height="400%"><rect x="-200%" y="-200%" width="400%" height="400%" style="fill:white;"/><path d=" M 394.333 268.28 L 159 268.28 L 512 962.237 L 512 962.237 L 394.333 268.28 L 394.333 268.28 Z " fill="black" stroke="none"/></mask><path d=" M 394.333 268.28 L 159 268.28 L 512 962.237 L 512 962.237 L 394.333 268.28 L 394.333 268.28 Z " fill="rgb(0,131,179)" mask="url(#_mask_RLYONEaBZCJy0HWVWwEFIZConRRUtOK1)" vector-effect="non-scaling-stroke" stroke-width="2" stroke="rgb(0,131,179)" stroke-linejoin="round" stroke-linecap="butt" stroke-miterlimit="1.414"/><path d=" M 394.333 268.28 L 159 268.28 L 512 962.237 L 512 962.237 L 394.333 268.28 L 394.333 268.28 Z " fill="rgb(0,131,179)"/><mask id="_mask_UFYZTah5QJVwZv2BFfk1lJayXv2FJqMX" x="-200%" y="-200%" width="400%" height="400%"><rect x="-200%" y="-200%" width="400%" height="400%" style="fill:white;"/><path d=" M 512 962.237 L 394.333 268.28 L 629.667 268.28 L 512 962.237 Z " fill-rule="evenodd" fill="black" stroke="none"/></mask><path d=" M 512 962.237 L 394.333 268.28 L 629.667 268.28 L 512 962.237 Z " fill-rule="evenodd" fill="rgb(0,119,163)" mask="url(#_mask_UFYZTah5QJVwZv2BFfk1lJayXv2FJqMX)" vector-effect="non-scaling-stroke" stroke-width="2" stroke="rgb(0,119,163)" stroke-linejoin="round" stroke-linecap="butt" stroke-miterlimit="1.414"/><path d=" M 512 962.237 L 394.333 268.28 L 629.667 268.28 L 512 962.237 Z " fill-rule="evenodd" fill="rgb(0,119,163)"/></g></g></svg>