<?xml version="1.0" encoding="UTF-8" standalone="no"?><!-- Generator: Gravit.io --><svg xmlns="http://www.w3.org/2000/svg" xmlns:xlink="http://www.w3.org/1999/xlink" style="isolation:isolate" viewBox="0 0 3600 2000" width="3600pt" height="2000pt"><defs><clipPath id="_clipPath_Hiio6agoOhbdQmPiM62wXDruTNGZVq9M"><rect width="3600" height="2000"/></clipPath></defs><g clip-path="url(#_clipPath_Hiio6agoOhbdQmPiM62wXDruTNGZVq9M)"><g style="isolation:isolate" filter="url(#3USzCulmOpYq8uaY8xbpPMf9lgzjtFIe)"><mask id="_mask_MIrV3GD0x7PdqmJUy9bTrV7ImPrnJmsk" x="-200%" y="-200%" width="400%" height="400%"><rect x="-200%" y="-200%" width="400%" height="400%" style="fill:white;"/><path d=" M 365.798 300.546 L 548.596 621.375 L 183 621.375 L 365.798 300.546 Z " fill-rule="evenodd" fill="black" stroke="none"/></mask><path d=" M 365.798 300.546 L 548.596 621.375 L 183 621.375 L 365.798 300.546 Z " fill-rule="evenodd" fill="rgb(0,137,187)" mask="url(#_mask_MIrV3GD0x7PdqmJUy9bTrV7ImPrnJmsk)" vector-effect="non-scaling-stroke" stroke-width="2" stroke="rgb(0,137,187)" stroke-linejoin="round" stroke-linecap="butt" stroke-miterlimit="1.414"/><path d=" M 365.798 300.546 L 548.596 621.375 L 183 621.375 L 365.798 300.546 Z " fill-rule="evenodd" fill="rgb(0,137,187)"/><mask id="_mask_CSG5bsbVgYAJpmhfWjlBJYBVid0TZ94V" x="-200%" y="-200%" width="400%" height="400%"><rect x="-200%" y="-200%" width="400%" height="400%" style="fill:white;"/><path d=" M 731.394 300.546 L 914.192 621.375 L 548.596 621.375 L 731.394 300.546 Z " fill-rule="evenodd" fill="black" stroke="none"/></mask><path d=" M 731.394 300.546 L 914.192 621.375 L 548.596 621.375 L 731.394 300.546 Z " fill-rule="evenodd" fill="rgb(2,106,145)" mask="url(#_mask_CSG5bsbVgYAJpmhfWjlBJYBVid0TZ94V)" vector-effect="non-scaling-stroke" stroke-width="2" stroke="rgb(2,106,145)" stroke-linejoin="round" stroke-linecap="butt" stroke-miterlimit="1.414"/><path d=" M 731.394 300.546 L 914.192 621.375 L 548.596 621.375 L 731.394 300.546 Z " fill-rule="evenodd" fill="rgb(2,106,145)"/><mask id="_mask_2Sc4greImEoEpv92sAwn2yN1NjNrbvzj" x="-200%" y="-200%" width="400%" height="400%"><rect x="-200%" y="-200%" width="400%" height="400%" style="fill:white;"/><path d=" M 1096.99 300.546 L 1279.788 621.375 L 914.192 621.375 L 1096.99 300.546 Z " fill-rule="evenodd" fill="black" stroke="none"/></mask><path d=" M 1096.99 300.546 L 1279.788 621.375 L 914.192 621.375 L 1096.99 300.546 Z " fill-rule="evenodd" fill="rgb(0,92,125)" mask="url(#_mask_2Sc4greImEoEpv92sAwn2yN1NjNrbvzj)" vector-effect="non-scaling-stroke" stroke-width="2" stroke="rgb(0,92,125)" stroke-linejoin="round" stroke-linecap="butt" stroke-miterlimit="1.414"/><path d=" M 1096.99 300.546 L 1279.788 621.375 L 914.192 621.375 L 1096.99 300.546 Z " fill-rule="evenodd" fill="rgb(0,92,125)"/><mask id="_mask_UU9YqxogrqwlVTtfnu6dTdhaWKnW1xjz" x="-200%" y="-200%" width="400%" height="400%"><rect x="-200%" y="-200%" width="400%" height="400%" style="fill:white;"/><path d=" M 914.192 621.375 L 731.394 300.546 L 1096.99 300.546 L 914.192 621.375 Z " fill-rule="evenodd" fill="black" stroke="none"/></mask><path d=" M 914.192 621.375 L 731.394 300.546 L 1096.99 300.546 L 914.192 621.375 Z " fill-rule="evenodd" fill="rgb(0,100,136)" mask="url(#_mask_UU9YqxogrqwlVTtfnu6dTdhaWKnW1xjz)" vector-effect="non-scaling-stroke" stroke-width="2" stroke="rgb(0,100,136)" stroke-linejoin="round" stroke-linecap="butt" stroke-miterlimit="1.414"/><path d=" M 914.192 621.375 L 731.394 300.546 L 1096.99 300.546 L 914.192 621.375 Z " fill-rule="evenodd" fill="rgb(0,100,136)"/><mask id="_mask_4azlXYsiZNACnIWPp5VGCuy1R9SxtLWL" x="-200%" y="-200%" width="400%" height="400%"><rect x="-200%" y="-200%" width="400%" height="400%" style="fill:white;"/><path d=" M 548.596 621.375 L 365.798 300.546 L 731.394 300.546 L 548.596 621.375 Z " fill-rule="evenodd" fill="black" stroke="none"/></mask><path d=" M 548.596 621.375 L 365.798 300.546 L 731.394 300.546 L 548.596 621.375 Z " fill-rule="evenodd" fill="rgb(0,119,163)" mask="url(#_mask_4azlXYsiZNACnIWPp5VGCuy1R9SxtLWL)" vector-effect="non-scaling-stroke" stroke-width="2" stroke="rgb(0,119,163)" stroke-linejoin="round" stroke-linecap="butt" stroke-miterlimit="1.414"/><path d=" M 548.596 621.375 L 365.798 300.546 L 731.394 300.546 L 548.596 621.375 Z " fill-rule="evenodd" fill="rgb(0,119,163)"/><mask id="_mask_AmjCq0pmH05DVXaxylMJ98ZorReEEgjf" x="-200%" y="-200%" width="400%" height="400%"><rect x="-200%" y="-200%" width="400%" height="400%" style="fill:white;"/><path d=" M 914.192 621.375 L 1279.788 621.375 L 731.394 1699.454 L 731.394 1699.454 L 914.192 621.375 L 914.192 621.375 Z " fill="black" stroke="none"/></mask><path d=" M 914.192 621.375 L 1279.788 621.375 L 731.394 1699.454 L 731.394 1699.454 L 914.192 621.375 L 914.192 621.375 Z " fill="rgb(0,100,136)" mask="url(#_mask_AmjCq0pmH05DVXaxylMJ98ZorReEEgjf)" vector-effect="non-scaling-stroke" stroke-width="2" stroke="rgb(0,100,136)" stroke-linejoin="round" stroke-linecap="butt" stroke-miterlimit="1.414"/><path d=" M 914.192 621.375 L 1279.788 621.375 L 731.394 1699.454 L 731.394 1699.454 L 914.192 621.375 L 914.192 621.375 Z " fill="rgb(0,100,136)"/><mask id="_mask_SpKUVgBdELPgAO4kHGNXsAE4aq0VF0S8" x="-200%" y="-200%" width="400%" height="400%"><rect x="-200%" y="-200%" width="400%" height="400%" style="fill:white;"/><path d=" M 548.596 621.375 L 183 621.375 L 731.394 1699.454 L 731.394 1699.454 L 548.596 621.375 L 548.596 621.375 Z " fill="black" stroke="none"/></mask><path d=" M 548.596 621.375 L 183 621.375 L 731.394 1699.454 L 731.394 1699.454 L 548.596 621.375 L 548.596 621.375 Z " fill="rgb(0,131,179)" mask="url(#_mask_SpKUVgBdELPgAO4kHGNXsAE4aq0VF0S8)" vector-effect="non-scaling-stroke" stroke-width="2" stroke="rgb(0,131,179)" stroke-linejoin="round" stroke-linecap="butt" stroke-miterlimit="1.414"/><path d=" M 548.596 621.375 L 183 621.375 L 731.394 1699.454 L 731.394 1699.454 L 548.596 621.375 L 548.596 621.375 Z " fill="rgb(0,131,179)"/><mask id="_mask_ZAcaAuwUQxRzu4XMw5xter4kXpSVC0E1" x="-200%" y="-200%" width="400%" height="400%"><rect x="-200%" y="-200%" width="400%" height="400%" style="fill:white;"/><path d=" M 731.394 1699.454 L 548.596 621.375 L 914.192 621.375 L 731.394 1699.454 Z " fill-rule="evenodd" fill="black" stroke="none"/></mask><path d=" M 731.394 1699.454 L 548.596 621.375 L 914.192 621.375 L 731.394 1699.454 Z " fill-rule="evenodd" fill="rgb(0,119,163)" mask="url(#_mask_ZAcaAuwUQxRzu4XMw5xter4kXpSVC0E1)" vector-effect="non-scaling-stroke" stroke-width="2" stroke="rgb(0,119,163)" stroke-linejoin="round" stroke-linecap="butt" stroke-miterlimit="1.414"/><path d=" M 731.394 1699.454 L 548.596 621.375 L 914.192 621.375 L 731.394 1699.454 Z " fill-rule="evenodd" fill="rgb(0,119,163)"/></g><defs><filter id="3USzCulmOpYq8uaY8xbpPMf9lgzjtFIe" x="-200%" y="-200%" width="400%" height="400%" filterUnits="objectBoundingBox" color-interpolation-filters="sRGB"><feGaussianBlur xmlns="http://www.w3.org/2000/svg" in="SourceGraphic" stdDeviation="21.46804531419514"/><feOffset xmlns="http://www.w3.org/2000/svg" dx="20" dy="20" result="pf_100_offsetBlur"/><feFlood xmlns="http://www.w3.org/2000/svg" flood-color="#1C1C1C" flood-opacity="1"/><feComposite xmlns="http://www.w3.org/2000/svg" in2="pf_100_offsetBlur" operator="in" result="pf_100_dropShadow"/><feBlend xmlns="http://www.w3.org/2000/svg" in="SourceGraphic" in2="pf_100_dropShadow" mode="normal"/></filter></defs><defs><filter id="bYxNPmuIgWdURsEhMn8E5dGhoaEBw3H2" x="-200%" y="-200%" width="400%" height="400%" filterUnits="objectBoundingBox" color-interpolation-filters="sRGB"><feGaussianBlur xmlns="http://www.w3.org/2000/svg" in="SourceGraphic" stdDeviation="21.46804531419514"/><feOffset xmlns="http://www.w3.org/2000/svg" dx="20" dy="20" result="pf_100_offsetBlur"/><feFlood xmlns="http://www.w3.org/2000/svg" flood-color="#1C1C1C" flood-opacity="1"/><feComposite xmlns="http://www.w3.org/2000/svg" in2="pf_100_offsetBlur" operator="in" result="pf_100_dropShadow"/><feBlend xmlns="http://www.w3.org/2000/svg" in="SourceGraphic" in2="pf_100_dropShadow" mode="normal"/></filter></defs><g filter="url(#bYxNPmuIgWdURsEhMn8E5dGhoaEBw3H2)"><text transform="matrix(1,0,0,1,1558,974.715)" style="font-family:'Segoe UI';font-weight:400;font-size:300px;font-style:normal;fill:#0077a3;stroke:none;">SapphireDb</text></g><defs><filter id="3yzWRl4vV3IoIFSk7aevl4IQWIlyGLEc" x="-200%" y="-200%" width="400%" height="400%" filterUnits="objectBoundingBox" color-interpolation-filters="sRGB"><feGaussianBlur xmlns="http://www.w3.org/2000/svg" in="SourceGraphic" stdDeviation="21.46804531419514"/><feOffset xmlns="http://www.w3.org/2000/svg" dx="20" dy="20" result="pf_100_offsetBlur"/><feFlood xmlns="http://www.w3.org/2000/svg" flood-color="#1C1C1C" flood-opacity="1"/><feComposite xmlns="http://www.w3.org/2000/svg" in2="pf_100_offsetBlur" operator="in" result="pf_100_dropShadow"/><feBlend xmlns="http://www.w3.org/2000/svg" in="SourceGraphic" in2="pf_100_dropShadow" mode="normal"/></filter></defs><g filter="url(#3yzWRl4vV3IoIFSk7aevl4IQWIlyGLEc)"><text transform="matrix(1,0,0,1,1158,1323.918)" style="font-family:'Segoe UI';font-weight:400;font-size:100px;font-style:normal;fill:#0077a3;stroke:none;">A SELF-HOSTED, EASY TO USE REALTIME DATABASE</text></g></g></svg>